Coordinates
version=1
nRows=24
nColumns=24
inDegrees=yes

Units are S.I. units (second, meters, Newtons, ...)
Angles are in degrees.

endheader
time	pelvis_tilt	pelvis_list	pelvis_rotation	pelvis_tx	pelvis_ty	pelvis_tz	hip_flexion_r	hip_adduction_r	hip_rotation_r	knee_angle_r	ankle_angle_r	subtalar_angle_r	mtp_angle_r	hip_flexion_l	hip_adduction_l	hip_rotation_l	knee_angle_l	ankle_angle_l	subtalar_angle_l	mtp_angle_l	lumbar_extension	lumbar_bending	lumbar_rotation
      2.06500000	      8.17193651	     12.27388163	     -3.79306713	     -0.36432782	      0.99354153	     -0.03248766	     20.34193654	    -14.21655392	     -7.62975560	    -25.27752111	      1.92527768	     -1.21189864	     11.12727005	     -7.79560498	     16.28171488	     -7.33631129	    -11.80823767	     11.37827104	      2.10496065	     19.12639869	    -22.24927260	    -13.93435531	      2.63793793
      2.07000000	      8.20430263	     12.37050592	     -3.61550277	     -0.35895453	      0.99304751	     -0.03216281	     19.94418509	    -14.26330319	     -8.26904408	    -23.19784141	      1.34532938	     -0.40756425	     11.07221131	     -8.29688023	     16.33671744	     -7.10033263	    -11.66710132	     11.61333739	      2.29647325	     18.76798214	    -22.32181846	    -13.98954156	      2.40050366
      2.07500000	      8.20561131	     12.49704191	     -3.43305885	     -0.35359206	      0.99244175	     -0.03180235	     19.58571457	    -14.32743155	     -8.91062221	    -21.15149055	      0.77186407	      0.46249485	     11.07405449	     -8.74882809	     16.41373584	     -6.87594759	    -11.55855178	     11.89632266	      2.49505624	     18.38671300	    -22.36534311	    -14.07931878	      2.14293763
      2.08000000	      8.15340998	     12.66023376	     -3.24305661	     -0.34825009	      0.99167339	     -0.03143288	     19.30924474	    -14.41808383	     -9.52999424	    -19.17695763	      0.23467117	      1.39885298	     11.10137741	     -9.12761187	     16.52042054	     -6.65418774	    -11.47812964	     12.22402225	      2.71059553	     18.12060938	    -22.35452622	    -14.20659006	      1.84359999
      2.08500000	      8.12761472	     12.81196772	     -3.06592899	     -0.34286855	      0.99091996	     -0.03101481	     18.98639293	    -14.48100935	    -10.13006106	    -17.21686054	     -0.27475470	      2.37033501	     11.15695229	     -9.54388986	     16.61442382	     -6.42137349	    -11.38349775	     12.50507777	      2.88637204	     17.80673534	    -22.36901926	    -14.32584473	      1.57082588
      2.09000000	      8.13282190	     12.92994323	     -2.90348532	     -0.33746714	      0.99018091	     -0.03055947	     18.61672041	    -14.49288677	    -10.69657927	    -15.28791949	     -0.78668230	      3.32066172	     11.27843745	     -9.99011712	     16.67268325	     -6.18250260	    -11.30141866	     12.81710793	      3.04369244	     17.21997759	    -22.41191573	    -14.41238728	      1.37943479
      2.09500000	      8.01753906	     13.13763210	     -2.73028365	     -0.33210573	      0.98917570	     -0.03007045	     18.45078423	    -14.58764338	    -11.21151835	    -13.52777263	     -1.17524749	      4.35018328	     11.33838144	    -10.28608159	     16.81143656	     -5.97674786	    -11.24633772	     13.11615942	      3.24713928	     16.94245698	    -22.33357058	    -14.59891522	      1.04641892
      2.10000000	      7.91809258	     13.32279511	     -2.55939573	     -0.32677543	      0.98817234	     -0.02957718	     18.27307471	    -14.65369439	    -11.68939690	    -11.84794150	     -1.53260175	      5.36602953	     11.36995615	    -10.57806191	     16.92506668	     -5.75160452	    -11.23492406	     13.43535270	      3.41451400	     16.70546468	    -22.27570006	    -14.76001102	      0.80025457
      2.10500000	      7.78349695	     13.48279376	     -2.39924694	     -0.32137093	      0.98709920	     -0.02906417	     18.15212117	    -14.68354089	    -12.14601698	    -10.28574781	     -1.83626451	      6.34083763	     11.37392709	    -10.84977492	     17.01302240	     -5.55084709	    -11.19094214	     13.70203810	      3.57475532	     16.51956338	    -22.16564748	    -14.89694947	      0.59027579
      2.11000000	      7.79988792	     13.65540629	     -2.25179147	     -0.31597199	      0.98622850	     -0.02851357	     17.87678875	    -14.73855342	    -12.61172703	     -8.83024621	     -2.07916008	      7.27129006	     11.33292644	    -11.29920851	     17.11776431	     -5.27886906	    -11.12319008	     13.98782188	      3.64078885	     16.05074344	    -22.23404148	    -15.04357051	      0.29615356
      2.11500000	      7.65389661	     13.83449936	     -2.09840489	     -0.31064190	      0.98508090	     -0.02797362	     17.85284764	    -14.79138547	    -12.98124120	     -7.58310225	     -2.23405053	      8.16421502	     11.27965608	    -11.52090861	     17.21944975	     -5.07928470	    -11.14928153	     14.33518888	      3.81864347	     15.81641072	    -22.12342069	    -15.20247349	      0.09539318
      2.12000000	      7.53479737	     13.97580085	     -1.94920884	     -0.30521916	      0.98400258	     -0.02743613	     17.81005791	    -14.81040182	    -13.37298086	     -6.47243223	     -2.33972263	      8.98170551	     11.21333690	    -11.80194027	     17.28383158	     -4.87248454	    -11.12236388	     14.58666985	      3.94817061	     15.62505709	    -22.03130423	    -15.31593946	     -0.09116049
      2.12500000	      7.57348201	     14.09473858	     -1.81455282	     -0.29979040	      0.98315846	     -0.02688507	     17.60241503	    -14.82229638	    -13.76925007	     -5.48848194	     -2.35925587	      9.70222331	     10.90656647	    -12.26169725	     17.32896374	     -4.58791546	    -11.08812797	     14.87905760	      3.99182358	     15.00600051	    -22.12025148	    -15.39754281	     -0.30254575
      2.13000000	      7.46698290	     14.23357655	     -1.67569345	     -0.29440931	      0.98207757	     -0.02634248	     17.64326748	    -14.85762484	    -14.09713714	     -4.75737509	     -2.28161991	     10.34480212	     10.75036641	    -12.52908627	     17.38797387	     -4.37801731	    -11.11280434	     15.21492992	      4.15259411	     14.77305289	    -22.04902573	    -15.50592815	     -0.47111783
      2.13500000	      7.41802089	     14.32213195	     -1.54079850	     -0.28893190	      0.98113237	     -0.02581552	     17.62278227	    -14.85260405	    -14.45211403	     -4.15962396	     -2.18413818	     10.87492782	     10.55607613	    -12.88235464	     17.39633645	     -4.14920511	    -11.10114212	     15.47746088	      4.25310833	     14.52728845	    -22.02951200	    -15.55116553	     -0.62020302
      2.14000000	      7.35625174	     14.37902168	     -1.40997813	     -0.28340246	      0.98019741	     -0.02529707	     17.65134399	    -14.82342924	    -14.81296393	     -3.74172981	     -2.07066817	     11.26044604	     10.42320318	    -13.22862449	     17.37113680	     -3.94497597	    -11.07723908	     15.73551533	      4.37127407	     14.38710315	    -21.98719883	    -15.56001676	     -0.73756176
      2.14500000	      7.36909824	     14.42255163	     -1.28146728	     -0.27786583	      0.97937528	     -0.02481473	     17.61816182	    -14.80238736	    -15.16269878	     -3.47712884	     -1.89308972	     11.54031286	     10.27782880	    -13.65152581	     17.33267256	     -3.69745996	    -11.06497089	     15.99334995	      4.45131399	     14.23597283	    -22.02898710	    -15.54244107	     -0.84162733
      2.15000000	      7.39026342	     14.44195933	     -1.16200744	     -0.27227822	      0.97859400	     -0.02429840	     17.59905401	    -14.76253960	    -15.48138845	     -3.36552138	     -1.69517917	     11.64812362	     10.13888183	    -14.08389565	     17.26571072	     -3.47076037	    -11.05188885	     16.23603115	      4.53797775	     14.10477245	    -22.07236209	    -15.50227534	     -0.93090982
      2.15500000	      7.35904307	     14.47941944	     -1.10548018	     -0.26668103	      0.97770086	     -0.02375787	     17.70355861	    -14.73654965	    -15.62005975	     -3.42434061	     -1.47787264	     11.55721411	     10.12912877	    -14.44398490	     17.23786310	     -3.28940677	    -11.04260911	     16.43367751	      4.58863322	     14.09916463	    -22.03580076	    -15.49896648	     -0.88986245
      2.16000000	      7.51719971	     14.43324456	     -0.94782714	     -0.26091825	      0.97720429	     -0.02336551	     17.50324440	    -14.67991177	    -16.06995045	     -3.52045289	     -1.27514966	     11.52140407	      9.95624922	    -15.05678741	     17.08763426	     -3.00491834	    -11.00168340	     16.62132816	      4.68850471	     13.93110616	    -22.22233934	    -15.34845552	     -1.00684215
      2.16500000	      7.56270724	     14.41080268	     -0.84304262	     -0.25514988	      0.97650052	     -0.02291129	     17.48199693	    -14.63281255	    -16.28779673	     -3.75318968	     -1.08462601	     11.21893015	      9.87931854	    -15.51828752	     16.97900016	     -2.78567842	    -10.99462750	     16.85110503	      4.75211599	     13.87808312	    -22.26453623	    -15.24700041	     -1.04749426
      2.17000000	      7.64796452	     14.38001966	     -0.74117618	     -0.24935432	      0.97587300	     -0.02248030	     17.42267203	    -14.59319636	    -16.51099207	     -4.08250203	     -0.92526173	     10.83874430	      9.81892575	    -16.01927701	     16.85911754	     -2.56077384	    -10.99331074	     17.01086464	      4.81894625	     13.83611599	    -22.34916319	    -15.13007532	     -1.06531510
      2.17500000	      7.71577972	     14.34663017	     -0.64337830	     -0.24347355	      0.97523089	     -0.02206891	     17.37440128	    -14.55828122	    -16.68478895	     -4.47134507	     -0.80349667	     10.36029732	      9.79397532	    -16.50564842	     16.73842737	     -2.33047134	    -10.98907054	     17.18580213	      4.87172261	     13.83747072	    -22.40148621	    -15.00760233	     -1.07423553
      2.18000000	      7.80558570	     14.30391843	     -0.54659282	     -0.23756409	      0.97464017	     -0.02167683	     17.29114268	    -14.52203450	    -16.83795920	     -4.90420780	     -0.76098637	      9.77143861	      9.78381585	    -17.00329544	     16.60595811	     -2.10696940	    -11.00830441	     17.31756625	      4.91702084	     13.86208691	    -22.47395161	    -14.86750840	     -1.06866459
